<?xml version="1.0" encoding="UTF-8"?>
<svg width="326px" height="120px" viewBox="0 0 326 120" version="1.1" xmlns="http://www.w3.org/2000/svg" xmlns:xlink="http://www.w3.org/1999/xlink">
    <!-- Generator: Sketch 46.2 (44496) - http://www.bohemiancoding.com/sketch -->
    <title>logo copy</title>
    <desc>Created with Sketch.</desc>
    <defs></defs>
    <g id="Page-1" stroke="none" stroke-width="1" fill="none" fill-rule="evenodd">
        <g id="brand-copy-5" transform="translate(-463.000000, -474.000000)">
            <g id="logo-copy" transform="translate(464.000000, 476.000000)">
                <path d="M32.4206526,25.74 C15.9467437,25.74 3.55836431,33.66 3.55836431,48.312 C3.42657304,73.26 40.1963375,67.848 40.1963375,78.276 C40.1963375,81.576 36.9015558,83.16 32.4206526,83.16 C24.5131763,83.16 15.2877874,79.992 7.24851988,74.316 L0,88.836 C8.56643259,95.436 20.0322731,98.868 31.8934875,98.868 C49.0263527,98.868 61.8101059,90.816 61.8101059,76.164 C61.9418972,51.348 24.5131763,56.1 24.5131763,46.332 C24.5131763,43.032 27.4125843,41.448 31.4981137,41.448 C37.4287209,41.448 45.3361971,43.956 53.9026297,48.576 L61.6783146,33.792 C52.9800908,28.644 42.7003717,25.74 32.4206526,25.74 Z M111.100041,25.74 C130.605149,25.74 141.939198,35.376 142.07099,51.48 L142.07099,97.944 L119.798265,97.944 L119.798265,89.76 C115.185571,95.832 107.673468,99 98.0527054,99 C82.8967092,99 73.6713203,89.76 73.6713203,76.692 C73.6713203,63.228 83.292083,55.308 100.952113,55.176 L119.666474,55.176 L119.666474,54.12 C119.666474,47.124 115.053779,42.9 105.82839,42.9 C99.8977831,42.9 92.1220982,45.012 84.6099958,48.84 L78.1522235,33.792 C89.2226902,28.644 99.2388268,25.74 111.100041,25.74 Z M105.037643,83.556 C112.154371,83.556 118.21677,79.596 119.666474,73.788 L119.666474,67.452 L105.301225,67.452 C98.4480792,67.452 95.0215061,69.828 95.0215061,75.108 C95.0215061,80.256 98.7116617,83.556 105.037643,83.556 Z M234.45667,0 L234.45667,97.944 L211.656781,97.944 L211.656781,88.572 C206.648712,95.172 199.400192,98.868 190.306595,98.868 C170.274322,98.868 157.095195,84.084 157.095195,62.04 C157.095195,40.26 170.14253,25.872 189.77943,25.872 C199.13661,25.872 206.648712,29.568 211.656781,36.168 L211.656781,0 L234.45667,0 Z M195.841828,81.18 C205.3308,81.18 211.656781,73.524 211.656781,62.568 C211.656781,51.612 205.3308,44.088 195.841828,44.088 C186.352857,44.088 180.026876,51.612 179.895084,62.568 C180.026876,73.524 186.352857,81.18 195.841828,81.18 Z M289.018257,26.004 C314.058598,26.004 326.446977,42.504 324.865482,68.508 L274.916591,68.508 C277.157042,76.956 283.219441,81.708 291.654082,81.708 C297.848272,81.708 303.91067,79.2 308.655156,74.448 L320.648161,86.196 C313.399642,94.116 302.724549,98.736 289.677213,98.736 C266.481949,98.736 251.984909,84.216 251.984909,62.568 C251.984909,40.524 267.009114,26.004 289.018257,26.004 Z M274.521217,56.232 L302.988131,56.232 C302.988131,47.52 297.452898,41.844 289.281839,41.844 C281.374363,41.844 275.970921,47.652 274.521217,56.232 Z" id="sade" fill="#44504F"></path>
                <path d="M27.6782609,117.271552 C27.2260847,116.785917 27,116.169544 27,115.422414 L27,107.689655 C27,106.942525 27.2260847,106.307474 27.6782609,105.784483 C28.130437,105.261492 28.7043443,105 29.4,105 L36.6,105 C37.2956557,105 37.869563,105.261492 38.3217391,105.784483 C38.7739153,106.307474 39,106.942525 39,107.689655 L39,115.422414 C39,116.169544 38.7739153,116.785917 38.3217391,117.271552 C37.869563,117.757186 37.2956557,118 36.6,118 L29.4,118 C28.7043443,118 28.130437,117.757186 27.6782609,117.271552 Z" id="." fill="#44504F"></path>
                <path d="M289.482332,19.4736842 C289.160776,19.1228053 289,18.7017568 289,18.2105263 C289,17.7894716 289.107184,17.2280737 289.321555,16.5263158 L294.895171,2.42105263 C295.252455,1.57894316 295.645463,0.964914211 296.074205,0.578947368 C296.502946,0.192980526 297.14605,0 298.003533,0 L301.326266,0 C301.897921,0 302.344521,0.210524211 302.666077,0.631578947 C302.987633,1.05263368 303.076953,1.57894421 302.934039,2.21052632 L300.575971,16.9473684 C300.3616,18.9824663 299.361218,20 297.574793,20 L290.714959,20 C290.21476,20 289.803888,19.8245632 289.482332,19.4736842 Z" id="‘" fill="#FDC030"></path>
                <path d="M212,0.192661 C219.653464,0.192661 233.640196,-0.24082625 233.67051,0.192661 L233.67051,10.3524949 C234.372938,20.3970803 233.745322,31.2234705 233.67051,41.2928306 C233.530142,60.1858138 234.179219,78.1424249 233.02675,97" id="Path-3" stroke="#60DBD3" stroke-width="4" stroke-linecap="round" stroke-linejoin="round"></path>
                <path d="M79,33.2693924 C84.4469409,31.7684834 91.8141863,28.0840965 103.728139,26.601866 C119.066864,24.6935552 139.026591,26.5908908 141.421332,43.13486 C144.023468,61.1116193 142.808581,79.4851222 141.995604,97.6340108 C141.949733,98.6580294 140.003361,97.2293231 139.00724,97.0269793" id="Path-4" stroke="#60DBD3" stroke-width="3" stroke-linecap="round" stroke-linejoin="round"></path>
                <path d="M53.786612,48.2487613 C53.5375213,49.71993 44.241204,44.5386465 37.8278689,43.4151797 C31.079998,42.2331101 24.739944,43.874751 24.3243169,44.6235751 C21.2413885,50.1780048 43.7942711,55.2516715 52.542346,60.9925051 C69.0574568,71.8303757 58.8330239,94.0712429 43.6745328,98.2414002 C38.5956572,99.6386177 33.1352727,98.6386916 27.8656426,98.8373373 C23.0495676,98.9466908 17.7771403,97.7929722 12.0483607,95.3761814 C6.31958106,92.9593906 2.63679417,90.9453983 1,89.3342045" id="Path-5" stroke="#60DBD3" stroke-width="3" stroke-linecap="round" stroke-linejoin="round"></path>
                <path d="M323,68.3478507 C272.593941,67.5651866 284.770579,68.3478507 274.105363,68.3478507 C273.653203,70.0866274 274.656359,72.5636972 277.114831,75.7790601 C280.802539,80.6021046 288.956674,82 295.102855,82 C301.249035,82 306.72697,76.4125345 307.956206,75" id="Path-6" stroke="#60DBD3" stroke-width="3" stroke-linecap="round" stroke-linejoin="round"></path>
            </g>
        </g>
    </g>
</svg>