<?xml version="1.0" encoding="UTF-8"?>
<svg width="70px" height="60px" viewBox="0 0 70 60" version="1.1" xmlns="http://www.w3.org/2000/svg" xmlns:xlink="http://www.w3.org/1999/xlink">
    <!-- Generator: Sketch 46.2 (44496) - http://www.bohemiancoding.com/sketch -->
    <title>pronounced</title>
    <desc>Created with Sketch.</desc>
    <defs></defs>
    <g id="Page-1" stroke="none" stroke-width="1" fill="none" fill-rule="evenodd">
        <g id="Desktop-HD" transform="translate(-141.000000, -69.000000)">
            <g id="pronounced" transform="translate(136.000000, 69.000000)">
                <path d="M8.91386718,35.6621094 L8.91386718,35.7441406 C9.32011921,35.7167967 9.68339682,35.5566421 10.0037109,35.2636719 C10.3201188,34.9667954 10.5115231,34.6113302 10.5779297,34.1972656 C10.5857422,34.1582029 10.5896484,34.1210939 10.5896484,34.0859375 C10.5896484,33.9296867 10.5369146,33.7910162 10.4314453,33.6699219 C10.2634757,33.4707021 10.0017596,33.3359379 9.64628905,33.265625 C9.49394454,33.2343748 9.35722716,33.21875 9.2361328,33.21875 C9.10331964,33.21875 8.99199262,33.2382811 8.90214843,33.2773438 C8.84355438,33.3632817 8.8142578,33.5703109 8.8142578,33.8984375 C8.8142578,34.1484387 8.83183575,34.4726543 8.86699218,34.8710938 C8.89824233,35.2343768 8.91386718,35.4980461 8.91386718,35.6621094 Z M12.1892578,33.6113281 C12.2751957,33.8105479 12.3181641,34.0156239 12.3181641,34.2265625 C12.3181641,34.7890653 12.0134796,35.3867156 11.4041016,36.0195312 C10.8064423,36.6367218 10.1560582,37.0156243 9.45292968,37.15625 C9.17949081,37.2109378 9.01933616,37.271484 8.97246093,37.3378906 C8.94511704,37.3730471 8.9314453,37.4492182 8.9314453,37.5664062 C8.9314453,37.6289066 8.93535151,37.7031246 8.94316405,37.7890625 C8.9626954,38.0117199 8.97246093,38.199218 8.97246093,38.3515625 L8.9783203,38.5625 C8.99003911,39.8945379 9.04277296,40.9492149 9.13652343,41.7265625 C9.1404297,41.7734377 9.1423828,41.8183592 9.1423828,41.8613281 C9.1423828,42.0214852 9.10136759,42.148437 9.01933593,42.2421875 C8.92949173,42.3437505 8.80058677,42.3945312 8.63261718,42.3945312 C8.40214727,42.3945312 8.14043114,42.3066415 7.84746093,42.1308594 C7.56230325,41.9589835 7.37285202,41.56055 7.27910155,40.9355469 C7.23222632,40.603514 7.20878905,40.1113314 7.20878905,39.4589844 L7.20878905,38.8613281 C7.15800755,37.23632 7.13261718,35.9257862 7.13261718,34.9296875 C7.13261718,33.8984323 7.15996065,33.2031268 7.21464843,32.84375 C7.24980485,32.35156 7.32792907,32.0253914 7.44902343,31.8652344 C7.53496136,31.7558588 7.67558495,31.7011719 7.87089843,31.7011719 L8.0408203,31.7011719 C8.82988675,31.7011719 9.62089446,31.8574203 10.4138672,32.1699219 C11.3474656,32.5332049 11.9392566,33.0136689 12.1892578,33.6113281 Z M19.0129297,31.8242188 C19.2160557,31.9765633 19.3176172,32.138671 19.3176172,32.3105469 C19.3176172,32.3535158 19.3098048,32.3984373 19.2941797,32.4453125 C18.4894882,32.8554708 17.8176199,33.4160121 17.2785547,34.1269531 C16.6848017,34.9043008 16.2746496,35.8124948 16.0480859,36.8515625 C15.8840226,37.6132851 15.6476968,37.9941406 15.3391016,37.9941406 C15.2062884,37.9941406 15.0598055,37.9218757 14.8996484,37.7773438 C14.5051152,37.417967 14.1965245,36.7246145 13.9738672,35.6972656 C13.7941788,34.876949 13.7043359,34.0781289 13.7043359,33.3007812 C13.778555,32.9843734 13.8976945,32.7675787 14.0617578,32.6503906 C14.1398832,32.5996091 14.2199605,32.5742188 14.3019922,32.5742188 C14.3918364,32.5742188 14.4816792,32.6015622 14.5715234,32.65625 C15.0012131,32.9218763 15.2473044,33.5410108 15.3098047,34.5136719 C15.4699617,33.9238252 15.8390987,33.308597 16.4172266,32.6679688 C17.0773861,31.9374963 17.7160516,31.5722656 18.3332422,31.5722656 L18.3449609,31.5722656 C18.563712,31.5722656 18.786366,31.6562492 19.0129297,31.8242188 Z M22.0397266,34.1210938 C21.9108197,34.3671887 21.8463672,34.6484359 21.8463672,34.9648438 L21.8463672,35.046875 C21.8541797,35.4023455 21.9323039,35.7031238 22.0807422,35.9492188 C22.2174616,36.1796887 22.3815225,36.2949219 22.5729297,36.2949219 C22.7877745,36.2949219 23.0162878,36.1503921 23.2584766,35.8613281 C23.5084778,35.5644516 23.6491014,35.1835961 23.6803516,34.71875 C23.6842578,34.6562497 23.6862109,34.5957034 23.6862109,34.5371094 C23.6862109,34.1464824 23.5963681,33.8085952 23.4166797,33.5234375 C23.3112104,33.3593742 23.1725399,33.2773438 23.0006641,33.2773438 C22.797538,33.2773438 22.5905089,33.374999 22.3795703,33.5703125 C22.1764443,33.7539072 22.0631642,33.9374991 22.0397266,34.1210938 Z M23.1588672,31.7597656 C23.779964,31.7597656 24.2760528,31.9941383 24.6471484,32.4628906 C25.018244,32.931643 25.2037891,33.5585898 25.2037891,34.34375 C25.2037891,35.2695359 24.9655102,36.0898402 24.4889453,36.8046875 C23.9498801,37.6015665 23.262387,38 22.4264453,38 C22.262382,38 22.0944149,37.9824221 21.9225391,37.9472656 C21.2623795,37.8183587 20.7838687,37.4023473 20.4869922,36.6992188 C20.2877724,36.2226539 20.1881641,35.6738312 20.1881641,35.0527344 C20.1881641,34.8964836 20.1940234,34.7363289 20.2057422,34.5722656 C20.2682425,33.7167926 20.5592552,33.0351588 21.0787891,32.5273438 C21.5944166,32.0156224 22.2526132,31.7597656 23.0533984,31.7597656 L23.1588672,31.7597656 Z M32.4434766,36.3769531 C32.5489458,36.7753926 32.6016797,37.097655 32.6016797,37.34375 C32.6016797,37.5429697 32.5665238,37.6894527 32.4962109,37.7832031 C32.3829291,37.9277351 32.2012903,38 31.9512891,38 C31.8536323,38 31.7442584,37.9882814 31.6231641,37.9648438 C31.2911311,37.9062497 31.0274619,37.5058631 30.8321484,36.7636719 C30.7149603,36.3261697 30.5860554,35.5703179 30.4454297,34.4960938 C30.3477729,33.7617151 30.2716018,33.2929698 30.2169141,33.0898438 C29.6309736,33.5195334 29.2188684,33.9999973 28.9805859,34.53125 C28.7852725,34.9687522 28.683711,35.5136686 28.6758984,36.1660156 C28.6719922,36.447267 28.5645714,36.7675763 28.3536328,37.1269531 C28.1114441,37.5410177 27.8516811,37.7480469 27.5743359,37.7480469 C27.3360535,37.7480469 27.123165,37.5820329 26.9356641,37.25 C26.8223822,37.046874 26.7657422,36.7109398 26.7657422,36.2421875 C26.7657422,35.8164041 26.8126167,35.2812532 26.9063672,34.6367188 C26.9883988,34.0742159 27.0313672,33.6894542 27.0352734,33.4824219 C27.0391797,33.0722636 27.1466005,32.7714853 27.3575391,32.5800781 C27.5059773,32.4394524 27.6934754,32.3691406 27.9200391,32.3691406 C28.0098833,32.3691406 28.1075385,32.3808593 28.2130078,32.4042969 C28.4669153,32.4589846 28.6036327,32.5468744 28.6231641,32.6679688 C28.752071,32.5312493 28.920038,32.302736 29.1270703,31.9824219 C29.3184775,31.6855454 29.4727728,31.4687507 29.5899609,31.3320312 C29.6798051,31.2304682 29.8243349,31.1171881 30.0235547,30.9921875 C30.2930873,30.8281242 30.5313661,30.7460938 30.7383984,30.7460938 C30.9883997,30.7460938 31.1700385,30.8652332 31.2833203,31.1035156 C31.6075407,31.8496131 31.8848817,33.0175702 32.1153516,34.6074219 C32.2012895,35.173831 32.2696482,35.5996079 32.3204297,35.8847656 C32.3360548,35.9785161 32.37707,36.142577 32.4434766,36.3769531 Z M35.8862891,34.1210938 C35.7573822,34.3671887 35.6929297,34.6484359 35.6929297,34.9648438 L35.6929297,35.046875 C35.7007422,35.4023455 35.7788664,35.7031238 35.9273047,35.9492188 C36.0640241,36.1796887 36.228085,36.2949219 36.4194922,36.2949219 C36.634337,36.2949219 36.8628503,36.1503921 37.1050391,35.8613281 C37.3550403,35.5644516 37.4956639,35.1835961 37.5269141,34.71875 C37.5308203,34.6562497 37.5327734,34.5957034 37.5327734,34.5371094 C37.5327734,34.1464824 37.4429306,33.8085952 37.2632422,33.5234375 C37.1577729,33.3593742 37.0191024,33.2773438 36.8472266,33.2773438 C36.6441005,33.2773438 36.4370714,33.374999 36.2261328,33.5703125 C36.0230068,33.7539072 35.9097267,33.9374991 35.8862891,34.1210938 Z M37.0054297,31.7597656 C37.6265265,31.7597656 38.1226153,31.9941383 38.4937109,32.4628906 C38.8648065,32.931643 39.0503516,33.5585898 39.0503516,34.34375 C39.0503516,35.2695359 38.8120727,36.0898402 38.3355078,36.8046875 C37.7964426,37.6015665 37.1089495,38 36.2730078,38 C36.1089445,38 35.9409774,37.9824221 35.7691016,37.9472656 C35.108942,37.8183587 34.6304312,37.4023473 34.3335547,36.6992188 C34.1343349,36.2226539 34.0347266,35.6738312 34.0347266,35.0527344 C34.0347266,34.8964836 34.0405859,34.7363289 34.0523047,34.5722656 C34.114805,33.7167926 34.4058177,33.0351588 34.9253516,32.5273438 C35.4409791,32.0156224 36.0991757,31.7597656 36.8999609,31.7597656 L37.0054297,31.7597656 Z M45.9853516,36.2773438 C46.2431654,37.0000036 46.3720703,37.5273421 46.3720703,37.859375 C46.3720703,38.265627 46.1982439,38.46875 45.8505859,38.46875 C45.6123035,38.46875 45.3837902,38.376954 45.1650391,38.1933594 C44.86035,37.9394519 44.6220712,37.3789106 44.4501953,36.5117188 C44.3994138,36.253905 44.3603517,36.070313 44.3330078,35.9609375 C44.0478501,36.4765651 43.6552759,36.9355449 43.1552734,37.3378906 C42.6201145,37.7675803 42.1357444,37.9824219 41.7021484,37.9824219 C41.3505842,37.9824219 41.0771494,37.8320328 40.8818359,37.53125 C40.6748037,37.2070296 40.5712891,36.7226595 40.5712891,36.078125 C40.5712891,35.4062466 40.6982409,34.6152389 40.9521484,33.7050781 C41.2724625,32.5371035 41.6669898,31.9453126 42.1357422,31.9296875 L42.1416016,31.9296875 C42.3134774,31.9296875 42.4462886,31.9863276 42.5400391,32.0996094 C42.6337895,32.2167975 42.6806641,32.429686 42.6806641,32.7382812 C42.6806641,33.1953148 42.5810557,33.8593706 42.3818359,34.7304688 C42.2294914,35.4023471 42.1533203,35.8417958 42.1533203,36.0488281 C42.1533203,36.1230472 42.1630858,36.1679687 42.1826172,36.1835938 C42.2021485,36.1835938 42.229492,36.1738282 42.2646484,36.1542969 C42.7998074,35.8261702 43.1962878,35.3476594 43.4541016,34.71875 C43.6025398,34.3554669 43.7333979,33.8222691 43.8466797,33.1191406 C43.9169925,32.6777322 43.9833981,32.3808601 44.0458984,32.2285156 C44.1474614,31.9863269 44.3017568,31.8652344 44.5087891,31.8652344 C44.9150411,31.8652344 45.2001945,32.1464816 45.3642578,32.7089844 C45.4619146,33.037111 45.5322263,33.5820274 45.5751953,34.34375 C45.5986329,34.7460958 45.6220702,35.0156243 45.6455078,35.1523438 C45.6884768,35.3906262 45.8017569,35.7656224 45.9853516,36.2773438 Z M53.4711328,36.3769531 C53.5766021,36.7753926 53.6293359,37.097655 53.6293359,37.34375 C53.6293359,37.5429697 53.59418,37.6894527 53.5238672,37.7832031 C53.4105854,37.9277351 53.2289466,38 52.9789453,38 C52.8812886,38 52.7719147,37.9882814 52.6508203,37.9648438 C52.3187874,37.9062497 52.0551182,37.5058631 51.8598047,36.7636719 C51.7426166,36.3261697 51.6137116,35.5703179 51.4730859,34.4960938 C51.3754292,33.7617151 51.2992581,33.2929698 51.2445703,33.0898438 C50.6586299,33.5195334 50.2465246,33.9999973 50.0082422,34.53125 C49.8129287,34.9687522 49.7113672,35.5136686 49.7035547,36.1660156 C49.6996484,36.447267 49.5922276,36.7675763 49.3812891,37.1269531 C49.1391004,37.5410177 48.8793373,37.7480469 48.6019922,37.7480469 C48.3637097,37.7480469 48.1508213,37.5820329 47.9633203,37.25 C47.8500385,37.046874 47.7933984,36.7109398 47.7933984,36.2421875 C47.7933984,35.8164041 47.840273,35.2812532 47.9340234,34.6367188 C48.0160551,34.0742159 48.0590234,33.6894542 48.0629297,33.4824219 C48.066836,33.0722636 48.1742568,32.7714853 48.3851953,32.5800781 C48.5336336,32.4394524 48.7211317,32.3691406 48.9476953,32.3691406 C49.0375395,32.3691406 49.1351948,32.3808593 49.2406641,32.4042969 C49.4945716,32.4589846 49.631289,32.5468744 49.6508203,32.6679688 C49.7797272,32.5312493 49.9476943,32.302736 50.1547266,31.9824219 C50.3461338,31.6855454 50.5004291,31.4687507 50.6176172,31.3320312 C50.7074614,31.2304682 50.8519912,31.1171881 51.0512109,30.9921875 C51.3207435,30.8281242 51.5590224,30.7460938 51.7660547,30.7460938 C52.0160559,30.7460938 52.1976947,30.8652332 52.3109766,31.1035156 C52.6351969,31.8496131 52.9125379,33.0175702 53.1430078,34.6074219 C53.2289457,35.173831 53.2973044,35.5996079 53.3480859,35.8847656 C53.363711,35.9785161 53.4047262,36.142577 53.4711328,36.3769531 Z M57.5350391,36.1894531 C57.6053519,36.1894531 57.6795699,36.1835938 57.7576953,36.171875 C58.1248847,36.1249998 58.6971446,35.9238299 59.4744922,35.5683594 C60.2869963,35.20117 60.8221472,34.9941409 61.0799609,34.9472656 C61.1619926,34.9316405 61.2362106,34.9238281 61.3026172,34.9238281 C61.6385564,34.9238281 61.816289,35.1054669 61.8358203,35.46875 C61.714726,36.2148475 60.7264546,36.9414027 58.8709766,37.6484375 C58.253786,37.8828137 57.7069165,38 57.2303516,38 C56.4842541,38 55.9061349,37.7148466 55.4959766,37.1445312 C55.2030064,36.7382792 55.048711,36.2265656 55.0330859,35.609375 L55.0330859,35.46875 C55.0330859,34.9335911 55.1346474,34.4023464 55.3377734,33.875 C55.5643371,33.2890596 55.8729277,32.8183612 56.2635547,32.4628906 C56.6776193,32.091795 57.1248804,31.90625 57.6053516,31.90625 L57.6463672,31.90625 C58.0916819,31.90625 58.3826946,32.091795 58.5194141,32.4628906 C58.5545705,32.5605474 58.5721484,32.6523433 58.5721484,32.7382812 C58.5721484,33.0000013 58.4178531,33.2207022 58.1092578,33.4003906 C57.4725359,33.783205 57.0838679,34.0468743 56.9432422,34.1914062 C56.6971472,34.4453138 56.5741016,34.7363265 56.5741016,35.0644531 C56.5741016,35.2246102 56.6053513,35.3964835 56.6678516,35.5800781 C56.804571,35.9863302 57.0936306,36.1894531 57.5350391,36.1894531 Z M62.9231641,34.9238281 C63.1731653,34.9238281 63.3782414,34.8359384 63.5383984,34.6601562 C63.6868367,34.4999992 63.7727733,34.3007824 63.7962109,34.0625 C63.8001172,34.0234373 63.8020703,33.9843752 63.8020703,33.9453125 C63.8020703,33.7578116 63.7551958,33.5917976 63.6614453,33.4472656 C63.5364447,33.2519521 63.3528528,33.138672 63.1106641,33.1074219 C63.0794139,33.1035156 63.0501173,33.1015625 63.0227734,33.1015625 C62.8665227,33.1015625 62.7454301,33.166015 62.6594922,33.2949219 C62.569648,33.427735 62.5247266,33.611327 62.5247266,33.8457031 C62.5247266,34.3691432 62.6575377,34.7285146 62.9231641,34.9238281 Z M67.5872266,34.4375 C67.8723842,34.2265614 68.0872258,34.1210938 68.2317578,34.1210938 C68.3762898,34.1210938 68.4485547,34.2304677 68.4485547,34.4492188 C68.3548042,35.1093783 67.9856673,35.8027307 67.3411328,36.5292969 C66.7122234,37.2324254 66.0735579,37.6972645 65.4251172,37.9238281 C65.190741,37.9746096 64.9583215,38 64.7278516,38 C63.5833146,38 62.5286376,37.351569 61.5637891,36.0546875 C61.2356624,35.613279 61.0716016,35.0078163 61.0716016,34.2382812 C61.0716016,33.9140609 61.1008982,33.5585957 61.1594922,33.171875 C61.2649615,32.476559 61.8196434,32.0175792 62.8235547,31.7949219 C62.9602741,31.7636717 63.0950384,31.7480469 63.2278516,31.7480469 C63.5911346,31.7480469 63.930975,31.8652332 64.2473828,32.0996094 C64.6067596,32.3652357 64.9133972,32.7617161 65.1673047,33.2890625 C65.2337113,33.5273449 65.2669141,33.749999 65.2669141,33.9570312 C65.2669141,34.5703156 64.9798076,35.0644512 64.4055859,35.4394531 C64.3118355,35.5019534 64.1868367,35.5605466 64.0305859,35.6152344 C63.8548038,35.6777347 63.7493361,35.7167968 63.7141797,35.7324219 C63.632148,35.7753908 63.5911328,35.8300778 63.5911328,35.8964844 L63.5911328,35.9082031 C63.5989454,35.9902348 63.6673041,36.1015618 63.7962109,36.2421875 C64.0696498,36.539064 64.3840998,36.6875 64.7395703,36.6875 C64.8411333,36.6875 64.946601,36.6757814 65.0559766,36.6523438 C65.5130101,36.5507807 65.9700368,36.2304714 66.4270703,35.6914062 C67.0403546,34.9765589 67.4270695,34.5585944 67.5872266,34.4375 Z M72.1960547,34.7421875 C71.8015215,34.8828132 71.4323845,35.064452 71.0886328,35.2871094 C70.6628494,35.556642 70.4167582,35.8085926 70.3503516,36.0429688 C70.3386328,36.0820314 70.3327734,36.1210936 70.3327734,36.1601562 C70.3327734,36.2500004 70.3640231,36.333984 70.4265234,36.4121094 L70.5847266,36.4296875 C70.9284783,36.4296875 71.274178,36.2402363 71.6218359,35.8613281 C71.9538689,35.4941388 72.1452732,35.1210956 72.1960547,34.7421875 Z M75.1316016,36.1191406 C75.4519157,36.48633 75.6120703,36.7968737 75.6120703,37.0507812 C75.6120703,37.1289066 75.5964455,37.2031246 75.5651953,37.2734375 C75.358163,37.7187522 75.1140249,37.9414062 74.8327734,37.9414062 C74.492928,37.9414062 74.0359013,37.4843796 73.4616797,36.5703125 C73.321054,36.3476551 73.2214456,36.197266 73.1628516,36.1191406 C72.7839434,36.9316447 72.0437165,37.4882797 70.9421484,37.7890625 C70.4304271,37.9296882 69.9597287,38 69.5300391,38 C68.920661,38 68.6159766,37.8183612 68.6159766,37.4550781 C68.5808201,37.2753897 68.5632422,37.095704 68.5632422,36.9160156 C68.5632422,35.7831975 69.2956567,34.718755 70.7605078,33.7226562 C70.8386332,33.6718747 71.0144127,33.5917974 71.2878516,33.4824219 C71.9636362,33.2128893 72.3015234,32.9960946 72.3015234,32.8320312 C72.2741796,32.5742175 72.2605078,32.1894557 72.2605078,31.6777344 C72.2605078,31.4199206 72.264414,31.130861 72.2722266,30.8105469 C72.2800391,30.4082011 72.2839453,30.0742201 72.2839453,29.8085938 C72.2839453,29.609374 72.2819922,29.4492194 72.2780859,29.328125 L72.2722266,29.2695312 C72.264414,29.1367181 72.2605078,29.0097662 72.2605078,28.8886719 C72.2605078,28.1269493 72.3776942,27.6250012 72.6120703,27.3828125 C72.7722274,27.2148429 72.9851159,27.1308594 73.2507422,27.1308594 C73.2937112,27.1308594 73.3366795,27.1328125 73.3796484,27.1367188 C73.5085553,27.1484376 73.6296479,27.2617177 73.7429297,27.4765625 C73.8366802,27.6601572 73.8972264,27.8457022 73.9245703,28.0332031 C73.9870706,28.4433614 74.0183203,29.1484325 74.0183203,30.1484375 L74.0183203,30.4941406 C74.0183203,30.6269538 74.0163672,30.8300768 74.0124609,31.1035156 C74.0085547,31.2558601 74.0066016,31.402343 74.0066016,31.5429688 C74.0066016,32.4531296 74.0612885,33.1425758 74.1706641,33.6113281 C74.3425399,34.3730507 74.6628492,35.2089798 75.1316016,36.1191406 Z M13.0258984,46.1835938 C13.1001175,46.3359383 13.1567576,46.4511715 13.1958203,46.5292969 C13.3637899,46.8691423 13.4985542,47.1621081 13.6001172,47.4082031 C13.7993369,47.8769555 13.8989453,48.2031241 13.8989453,48.3867188 C13.8989453,48.5039068 13.8579301,48.5625 13.7758984,48.5625 L13.7231641,48.5625 C13.2192553,48.5625 12.7407444,48.3535177 12.2876172,47.9355469 C11.8735526,47.5488262 11.5551964,47.0664091 11.3325391,46.4882812 C11.1801945,46.0976543 11.1040234,45.7460953 11.1040234,45.4335938 C11.1040234,45.292968 11.1196483,45.1601569 11.1508984,45.0351562 C11.2524614,44.5976541 11.5239431,44.3789062 11.9653516,44.3789062 L11.9770703,44.3789062 C12.0200393,44.375 12.0630076,44.3730469 12.1059766,44.3730469 C12.3091026,44.3730469 12.4633979,44.4140621 12.5688672,44.4960938 C12.6665239,44.5703129 12.7290233,44.6972647 12.7563672,44.8769531 C12.8618365,45.5488315 12.9145703,45.9082029 12.9145703,45.9550781 L12.9145703,45.9609375 L13.0258984,46.1835938 Z M9.3989453,44.3730469 C9.60207132,44.3730469 9.75441354,44.4140621 9.85597655,44.4960938 C9.95753956,44.5703129 10.021992,44.6972647 10.0493359,44.8769531 C10.1548052,45.5683628 10.2075391,45.9296873 10.2075391,45.9609375 L10.3188672,46.1835938 C10.3930863,46.3359383 10.4497264,46.4511715 10.4887891,46.5292969 C10.6567586,46.8691423 10.7915229,47.1621081 10.8930859,47.4082031 C11.0923057,47.8769555 11.1919141,48.2031241 11.1919141,48.3867188 C11.1919141,48.5039068 11.1508988,48.5625 11.0688672,48.5625 L11.0161328,48.5625 C10.512224,48.5625 10.0337132,48.3535177 9.58058593,47.9355469 C9.16652136,47.5488262 8.84816517,47.0664091 8.6255078,46.4882812 C8.47316329,46.0898418 8.39699218,45.7343766 8.39699218,45.421875 C8.39699218,45.2851556 8.41066392,45.1562506 8.4380078,45.0351562 C8.54347708,44.5976541 8.81691184,44.3789062 9.2583203,44.3789062 L9.27003905,44.3789062 C9.31300802,44.375 9.35597634,44.3730469 9.3989453,44.3730469 Z M16.7206641,52.7109375 L16.7675391,52.7519531 C16.9511337,52.8027346 17.8808119,53.1347626 19.5566016,53.7480469 C20.1698859,53.9746105 20.5917567,54.2304673 20.8222266,54.515625 C20.9745711,54.7031259 21.0507422,54.9121082 21.0507422,55.1425781 C21.0507422,55.3457041 20.992149,55.564452 20.8749609,55.7988281 C20.746054,56.0488294 20.4218385,56.2792958 19.9023047,56.4902344 C19.4179273,56.6855479 18.8632453,56.8281246 18.2382422,56.9179688 C17.8671466,56.9726565 17.5273062,57 17.2187109,57 C16.9999598,57 16.7948838,56.9863283 16.6034766,56.9589844 C16.0917552,56.8886715 15.7870708,56.7285169 15.6894141,56.4785156 C15.5917573,56.2402332 15.5429297,56.0234385 15.5429297,55.828125 C15.5429297,55.6796868 15.5702732,55.5429694 15.6249609,55.4179688 C15.7148051,55.2070302 15.8554287,55.1015625 16.0468359,55.1015625 C16.1483989,55.1015625 16.2616791,55.128906 16.3866797,55.1835938 C16.9648076,55.4296887 17.4667557,55.5527344 17.8925391,55.5527344 C18.3456663,55.5527344 18.710897,55.4121108 18.9882422,55.1308594 C18.9179293,55.1308594 18.1269216,54.8964867 16.6151953,54.4277344 C15.4862834,54.0800764 14.9218359,53.6191435 14.9218359,53.0449219 C14.9101171,52.9628902 14.9042578,52.8828129 14.9042578,52.8046875 C14.9042578,52.2343721 15.2362857,51.7441427 15.9003516,51.3339844 C16.5214484,50.95117 17.1425359,50.7597656 17.7636328,50.7597656 L17.8691016,50.7597656 C18.0917589,50.7597656 18.296835,50.8164057 18.4843359,50.9296875 C18.6601181,51.0351568 18.7812106,51.1660148 18.8476172,51.3222656 C18.8749611,51.3925785 18.8886328,51.4589841 18.8886328,51.5214844 C18.8886328,51.6113286 18.8632424,51.6953121 18.8124609,51.7734375 C18.7108979,51.925782 18.5214467,52.0351559 18.2441016,52.1015625 C17.5683169,52.210938 17.2284766,52.265625 17.2245703,52.265625 C16.857381,52.3554692 16.6737891,52.46289 16.6737891,52.5878906 C16.6737891,52.6425784 16.6894139,52.6835936 16.7206641,52.7109375 Z M28.4837891,56.2441406 L28.4837891,56.2910156 C28.4564452,56.7246115 28.2513691,56.9414062 27.8685547,56.9414062 C27.4349588,56.9414062 27.0072287,56.7539081 26.5853516,56.3789062 C26.1986309,55.9296853 25.8978526,55.1171934 25.6830078,53.9414062 C25.6478514,53.7539053 25.6283203,53.6464845 25.6244141,53.6191406 C25.5306636,53.7949228 25.3783214,54.1562473 25.1673828,54.703125 C24.8822251,55.4453162 24.657618,55.9628892 24.4935547,56.2558594 C24.2123033,56.7519556 23.9349623,57 23.6615234,57 C23.3763658,57 23.1341807,56.8906261 22.9349609,56.671875 C22.6380844,56.3437484 22.4896484,55.9335962 22.4896484,55.4414062 C22.4896484,55.3632809 22.4935546,55.2832035 22.5013672,55.2011719 C22.5482424,54.6855443 22.5716797,53.9062552 22.5716797,52.8632812 C22.575586,52.4960919 22.5775391,52.2050792 22.5775391,51.9902344 C22.5931641,50.8574162 22.6537104,49.8027393 22.7591797,48.8261719 C22.9583994,47.0214754 23.2669901,46.1191406 23.6849609,46.1191406 C23.7591801,46.1191406 23.831445,46.144531 23.9017578,46.1953125 C24.1830092,46.3242194 24.327539,46.7636681 24.3353516,47.5136719 L24.3353516,47.5546875 C24.3353516,48.0703151 24.2650398,48.8535104 24.1244141,49.9042969 C24.0736326,50.2910176 24.0462891,50.5351557 24.0423828,50.6367188 C23.9955076,51.4218789 23.9720703,52.1386686 23.9720703,52.7871094 C23.9720703,53.0761733 23.9759765,53.3496081 23.9837891,53.6074219 C24.2064464,53.3808582 24.421288,52.9589875 24.6283203,52.3417969 C24.7728523,51.8964821 24.9056635,51.5761729 25.0267578,51.3808594 C25.2259776,51.0488265 25.4994123,50.8105476 25.8470703,50.6660156 C25.9251957,50.6308592 26.0013668,50.6132812 26.0755859,50.6132812 C26.4154314,50.6132812 26.6908193,50.941403 26.9017578,51.5976562 C27.0541023,52.0742211 27.1888666,52.7910108 27.3060547,53.7480469 L27.3412109,54.0292969 C27.6068373,55.0722708 27.9759742,55.8007792 28.4486328,56.2148438 L28.4837891,56.2441406 Z M33.2156641,52.4882812 C33.1922264,52.4726562 33.164883,52.4648438 33.1336328,52.4648438 C33.0047259,52.4648438 32.8269933,52.5878894 32.6004297,52.8339844 C32.3113657,53.1542985 32.0223061,53.5820286 31.7332422,54.1171875 C31.4676159,54.61719 31.3133205,54.9941394 31.2703516,55.2480469 C31.6726973,55.1347651 32.0945681,54.7558626 32.5359766,54.1113281 C32.9695725,53.4824187 33.1961327,52.9414085 33.2156641,52.4882812 Z M36.1336328,55.2773438 C36.4148842,55.6679707 36.5555078,55.9902331 36.5555078,56.2441406 C36.5203514,56.4355478 36.3992588,56.605468 36.1922266,56.7539062 C35.9891005,56.9023445 35.7742589,56.9765625 35.5476953,56.9765625 C35.3601944,56.9765625 35.2039459,56.9179693 35.0789453,56.8007812 C34.8211315,56.5664051 34.5848058,56.1093784 34.3699609,55.4296875 C34.2058976,54.8984348 34.045743,54.5332041 33.8894922,54.3339844 L33.7312891,54.5800781 C33.3094119,55.2480502 32.9637123,55.7304673 32.6941797,56.0273438 C32.2293336,56.5351588 31.7430103,56.8437495 31.2351953,56.953125 C31.0867571,56.9843752 30.9441804,57 30.8074609,57 C30.4090214,57 30.086759,56.8730481 29.8406641,56.6191406 C29.5906628,56.3652331 29.4539454,56.0195334 29.4305078,55.5820312 C29.4305078,54.6992143 29.9910491,53.6152408 31.1121484,52.3300781 C32.5496556,51.1621035 33.6355823,50.578125 34.3699609,50.578125 L34.4285547,50.578125 C34.7254312,50.578125 34.9578507,50.8593722 35.1258203,51.421875 C35.223477,51.7382828 35.315273,52.2382778 35.4012109,52.921875 C35.4285548,53.1601574 35.4480859,53.3066404 35.4598047,53.3613281 C35.4715235,53.4042971 35.4930077,53.5058586 35.5242578,53.6660156 C35.6297271,54.2011746 35.7351948,54.5859363 35.8406641,54.8203125 C35.8875393,54.9218755 35.9851946,55.0742177 36.1336328,55.2773438 Z M44.0940234,53.3144531 C44.0979297,53.3378907 44.0998828,53.361328 44.0998828,53.3847656 C44.0998828,53.4433597 44.0920704,53.5039059 44.0764453,53.5664062 C44.0217575,53.8515639 43.8850402,54.0234372 43.6662891,54.0820312 C43.303006,54.1757817 43.0354305,54.2285156 42.8635547,54.2402344 C42.8049606,54.2441406 42.7287895,54.2460938 42.6350391,54.2460938 C42.5451949,54.2460938 42.4397272,54.2441406 42.3186328,54.2402344 L42.2073047,54.2402344 C41.9026157,54.2402344 41.5549629,54.2539061 41.1643359,54.28125 C41.0315228,54.2890625 40.8967585,54.2988281 40.7600391,54.3105469 L39.5412891,54.3925781 L38.9905078,54.421875 C38.9006636,54.4296875 38.8010552,54.4414062 38.6916797,54.4570312 C38.6330856,54.4648438 38.5764456,54.4707031 38.5217578,54.4746094 C38.4631638,54.4785156 38.4065237,54.4804688 38.3518359,54.4804688 C38.2580855,54.4804688 38.1662895,54.4746094 38.0764453,54.4628906 C37.9631635,54.4511718 37.8713675,54.398438 37.8010547,54.3046875 C37.7268356,54.195312 37.6838672,54.0722663 37.6721484,53.9355469 L37.6721484,53.8769531 C37.6721484,53.7285149 37.7092574,53.5625009 37.7834766,53.3789062 C37.8576957,52.9648417 38.103787,52.7441408 38.5217578,52.7167969 C38.6155083,52.7089843 38.720976,52.7050781 38.8381641,52.7050781 C38.9006644,52.7011719 38.9729293,52.6992188 39.0549609,52.6992188 C39.1408989,52.6992188 39.2385541,52.7011719 39.3479297,52.7050781 L39.5764453,52.7050781 C39.7951964,52.7050781 39.9651166,52.7011719 40.0862109,52.6933594 L40.2971484,52.6757812 C40.5823061,52.6523436 40.8655064,52.6308595 41.1467578,52.6113281 L41.5803516,52.5820312 C41.6897271,52.578125 41.7951948,52.5742188 41.8967578,52.5703125 C42.0491023,52.5585937 42.191679,52.544922 42.3244922,52.5292969 L42.6701953,52.4941406 C42.7248831,52.4902344 42.8127728,52.4746095 42.9338672,52.4472656 C43.0627741,52.4199217 43.1799604,52.4023438 43.2854297,52.3945312 L43.3733203,52.3945312 C43.5451962,52.3945312 43.6838667,52.4238278 43.7893359,52.4824219 C43.9807431,52.5878912 44.0823046,52.8652321 44.0940234,53.3144531 Z M48.7907422,53.7421875 C48.396209,53.8828132 48.027072,54.064452 47.6833203,54.2871094 C47.2575369,54.556642 47.0114456,54.8085926 46.9450391,55.0429688 C46.9333203,55.0820314 46.9274609,55.1210936 46.9274609,55.1601562 C46.9274609,55.2500004 46.9587106,55.333984 47.0212109,55.4121094 L47.1794141,55.4296875 C47.5231658,55.4296875 47.8688655,55.2402363 48.2165234,54.8613281 C48.5485563,54.4941388 48.7399607,54.1210956 48.7907422,53.7421875 Z M51.7262891,55.1191406 C52.0466032,55.48633 52.2067578,55.7968737 52.2067578,56.0507812 C52.2067578,56.1289066 52.191133,56.2031246 52.1598828,56.2734375 C51.9528505,56.7187522 51.7087123,56.9414062 51.4274609,56.9414062 C51.0876155,56.9414062 50.6305888,56.4843796 50.0563672,55.5703125 C49.9157415,55.3476551 49.8161331,55.197266 49.7575391,55.1191406 C49.3786309,55.9316447 48.6384039,56.4882797 47.5368359,56.7890625 C47.0251146,56.9296882 46.5544162,57 46.1247266,57 C45.5153485,57 45.2106641,56.8183612 45.2106641,56.4550781 C45.1755076,56.2753897 45.1579297,56.095704 45.1579297,55.9160156 C45.1579297,54.7831975 45.8903442,53.718755 47.3551953,52.7226562 C47.4333207,52.6718747 47.6091002,52.5917974 47.8825391,52.4824219 C48.5583237,52.2128893 48.8962109,51.9960946 48.8962109,51.8320312 C48.8688671,51.5742175 48.8551953,51.1894557 48.8551953,50.6777344 C48.8551953,50.4199206 48.8591015,50.130861 48.8669141,49.8105469 C48.8747266,49.4082011 48.8786328,49.0742201 48.8786328,48.8085938 C48.8786328,48.609374 48.8766797,48.4492194 48.8727734,48.328125 L48.8669141,48.2695312 C48.8591015,48.1367181 48.8551953,48.0097662 48.8551953,47.8886719 C48.8551953,47.1269493 48.9723816,46.6250012 49.2067578,46.3828125 C49.3669149,46.2148429 49.5798034,46.1308594 49.8454297,46.1308594 C49.8883987,46.1308594 49.931367,46.1328125 49.9743359,46.1367188 C50.1032428,46.1484376 50.2243354,46.2617177 50.3376172,46.4765625 C50.4313677,46.6601572 50.4919139,46.8457022 50.5192578,47.0332031 C50.5817581,47.4433614 50.6130078,48.1484325 50.6130078,49.1484375 L50.6130078,49.4941406 C50.6130078,49.6269538 50.6110547,49.8300768 50.6071484,50.1035156 C50.6032422,50.2558601 50.6012891,50.402343 50.6012891,50.5429688 C50.6012891,51.4531296 50.655976,52.1425758 50.7653516,52.6113281 C50.9372274,53.3730507 51.2575367,54.2089798 51.7262891,55.1191406 Z M55.1046484,53.9238281 C55.3546497,53.9238281 55.5597258,53.8359384 55.7198828,53.6601562 C55.8683211,53.4999992 55.9542577,53.3007824 55.9776953,53.0625 C55.9816016,53.0234373 55.9835547,52.9843752 55.9835547,52.9453125 C55.9835547,52.7578116 55.9366802,52.5917976 55.8429297,52.4472656 C55.7179291,52.2519521 55.5343372,52.138672 55.2921484,52.1074219 C55.2608983,52.1035156 55.2316017,52.1015625 55.2042578,52.1015625 C55.048007,52.1015625 54.9269145,52.166015 54.8409766,52.2949219 C54.7511324,52.427735 54.7062109,52.611327 54.7062109,52.8457031 C54.7062109,53.3691432 54.8390221,53.7285146 55.1046484,53.9238281 Z M59.7687109,53.4375 C60.0538686,53.2265614 60.2687102,53.1210938 60.4132422,53.1210938 C60.5577742,53.1210938 60.6300391,53.2304677 60.6300391,53.4492188 C60.5362886,54.1093783 60.1671517,54.8027307 59.5226172,55.5292969 C58.8937078,56.2324254 58.2550423,56.6972645 57.6066016,56.9238281 C57.3722254,56.9746096 57.1398058,57 56.9093359,57 C55.764799,57 54.710122,56.351569 53.7452734,55.0546875 C53.4171468,54.613279 53.2530859,54.0078163 53.2530859,53.2382812 C53.2530859,52.9140609 53.2823825,52.5585957 53.3409766,52.171875 C53.4464458,51.476559 54.0011278,51.0175792 55.0050391,50.7949219 C55.1417585,50.7636717 55.2765228,50.7480469 55.4093359,50.7480469 C55.772619,50.7480469 56.1124594,50.8652332 56.4288672,51.0996094 C56.788244,51.3652357 57.0948815,51.7617161 57.3487891,52.2890625 C57.4151956,52.5273449 57.4483984,52.749999 57.4483984,52.9570312 C57.4483984,53.5703156 57.1612919,54.0644512 56.5870703,54.4394531 C56.4933198,54.5019534 56.3683211,54.5605466 56.2120703,54.6152344 C56.0362882,54.6777347 55.9308205,54.7167968 55.8956641,54.7324219 C55.8136324,54.7753908 55.7726172,54.8300778 55.7726172,54.8964844 L55.7726172,54.9082031 C55.7804297,54.9902348 55.8487884,55.1015618 55.9776953,55.2421875 C56.2511342,55.539064 56.5655842,55.6875 56.9210547,55.6875 C57.0226177,55.6875 57.1280854,55.6757814 57.2374609,55.6523438 C57.6944945,55.5507807 58.1515212,55.2304714 58.6085547,54.6914062 C59.221839,53.9765589 59.6085539,53.5585944 59.7687109,53.4375 Z M66.8970703,57.6621094 C66.9595706,58.1269554 66.9908203,58.5214828 66.9908203,58.8457031 C66.9908203,59.1152357 66.9693362,59.3339835 66.9263672,59.5019531 C66.7662101,60.1035186 66.3111366,60.6249978 65.5611328,61.0664062 C65.1939435,61.2851573 64.8033224,61.3945312 64.3892578,61.3945312 C63.3814403,61.3945312 62.3736379,60.8105527 61.3658203,59.6425781 C61.244726,59.4863273 61.1607424,59.2988292 61.1138672,59.0800781 C61.0943358,58.9824214 61.0845703,58.8925785 61.0845703,58.8105469 C61.0845703,58.6933588 61.1041014,58.5937504 61.1431641,58.5117188 C61.2173832,58.3632805 61.3345695,58.2890625 61.4947266,58.2890625 C61.6080084,58.2890625 61.7408196,58.3242184 61.8931641,58.3945312 C62.471292,58.6679701 63.0337863,58.9707015 63.5806641,59.3027344 C63.9634785,59.5371105 64.287694,59.6542969 64.5533203,59.6542969 C64.7759777,59.6542969 64.9576165,59.5703133 65.0982422,59.4023438 C65.3521497,59.0937485 65.4791016,58.5312541 65.4791016,57.7148438 C65.4791016,56.8554645 65.3404311,55.7187571 65.0630859,54.3046875 C64.9263665,54.4765634 64.7388684,54.748045 64.5005859,55.1191406 C64.1763656,55.6230494 63.9107432,55.9765615 63.7037109,56.1796875 C63.3599592,56.5234392 62.9654319,56.7324215 62.5201172,56.8066406 C62.4224605,56.8222657 62.3287114,56.8300781 62.2388672,56.8300781 C61.8912092,56.8300781 61.6138682,56.7109387 61.4068359,56.4726562 C61.117772,56.1406233 60.9732422,55.5742228 60.9732422,54.7734375 C60.9732422,54.3710917 61.0103512,53.9062526 61.0845703,53.3789062 C61.1275393,53.0585921 61.2544911,52.593753 61.4654297,51.984375 C61.7818375,51.0664017 62.1138655,50.6074219 62.4615234,50.6074219 C62.6763683,50.6074219 62.8716788,50.7792952 63.0474609,51.1230469 L63.0591797,51.1699219 C63.0591797,51.5839864 62.9595713,52.1855429 62.7603516,52.9746094 C62.5689444,53.7402382 62.4732422,54.3437478 62.4732422,54.7851562 C62.4732422,54.839844 62.4751953,54.8925779 62.4791016,54.9433594 C62.8150407,54.822265 63.1490218,54.4921902 63.4810547,53.953125 C63.6763682,53.6328109 63.9419905,53.0996131 64.2779297,52.3535156 C64.5943375,51.6503871 64.8326164,51.1757825 64.9927734,50.9296875 C65.2544935,50.5234355 65.5181627,50.3203125 65.7837891,50.3203125 C65.8345706,50.3203125 65.8853513,50.3281249 65.9361328,50.34375 L65.9654297,50.34375 C66.0474614,50.34375 66.133398,50.3886714 66.2232422,50.4785156 C66.5865253,50.845705 66.7681641,52.3163934 66.7681641,54.890625 L66.7681641,55.6875 C66.7681641,56.1679712 66.7740234,56.4843742 66.7857422,56.6367188 C66.8013673,56.8828137 66.8384763,57.2246072 66.8970703,57.6621094 Z M70.4746484,44.5546875 C70.9160569,44.5546875 71.1894917,44.7734353 71.2949609,45.2109375 C71.3223048,45.3320319 71.3359766,45.4609368 71.3359766,45.5976562 C71.3359766,45.9101578 71.2598055,46.265623 71.1074609,46.6640625 C70.8848036,47.2421904 70.5664474,47.7246074 70.1523828,48.1113281 C69.6992556,48.529299 69.2207447,48.7382812 68.7168359,48.7382812 L68.6641016,48.7382812 C68.5820699,48.7382812 68.5410547,48.6796881 68.5410547,48.5625 C68.5410547,48.3789053 68.6406631,48.0527367 68.8398828,47.5839844 C68.9414458,47.3378894 69.0762101,47.0449236 69.2441797,46.7050781 C69.2832424,46.6269527 69.3398824,46.5117195 69.4141016,46.359375 L69.5254297,46.1367188 C69.5254297,46.1054686 69.5781635,45.7441441 69.6836328,45.0527344 C69.7109767,44.873046 69.7754292,44.7460941 69.8769922,44.671875 C69.9785552,44.5898433 70.1308974,44.5488281 70.3340234,44.5488281 C70.3769924,44.5488281 70.4199607,44.5507812 70.4629297,44.5546875 L70.4746484,44.5546875 Z M73.1816797,44.5546875 C73.6230882,44.5546875 73.8965229,44.7734353 74.0019922,45.2109375 C74.0293361,45.3320319 74.0430078,45.4609368 74.0430078,45.5976562 C74.0430078,45.9101578 73.9668367,46.265623 73.8144922,46.6640625 C73.5918348,47.2421904 73.2734786,47.7246074 72.8594141,48.1113281 C72.4062868,48.529299 71.927776,48.7382812 71.4238672,48.7382812 L71.3711328,48.7382812 C71.2891012,48.7382812 71.2480859,48.6796881 71.2480859,48.5625 C71.2480859,48.3789053 71.3476943,48.0527367 71.5469141,47.5839844 C71.6523833,47.3378894 71.7871476,47.0449236 71.9512109,46.7050781 C71.9902736,46.6269527 72.0469137,46.5117195 72.1211328,46.359375 L72.2324609,46.1367188 C72.2324609,46.1054686 72.2851948,45.7441441 72.3906641,45.0527344 C72.418008,44.873046 72.4824604,44.7460941 72.5840234,44.671875 C72.6855865,44.5898433 72.8379287,44.5488281 73.0410547,44.5488281 C73.0840237,44.5488281 73.126992,44.5507812 73.1699609,44.5546875 L73.1816797,44.5546875 Z" id="pronounced-“sha-dey”" fill="#44504F" transform="translate(41.372344, 44.262695) rotate(-7.000000) translate(-41.372344, -44.262695) "></path>
                <path d="M5.8125,0.79296875 C11.2118478,6.27098108 16.2360346,12.1459997 22.0105435,17.2270057 C23.5776795,18.6059329 47.7421651,29.1116975 14.705007,17.9520871 C12.8320472,17.3194206 18.7185207,17.5138945 20.6356251,17.9965496 C23.8185029,18.7978791 27.2093473,23.8239995 29.7436044,21.7382429 C32.3414548,19.6001476 28.7221062,15.0871037 28.2113571,11.7615341" id="Path-2" stroke="#979797" stroke-width="2"></path>
            </g>
        </g>
    </g>
</svg>