<svg width="30" height="30" xmlns="http://www.w3.org/2000/svg"><path d="M15 0C6.716 0 0 6.716 0 15c0 8.284 6.716 15 15 15 8.284 0 15-6.716 15-15 0-8.284-6.716-15-15-15zm8.62 10.579c.009.19.013.382.013.575 0 5.878-4.474 12.655-12.655 12.655a12.59 12.59 0 0 1-6.818-1.998c.348.041.702.062 1.061.062a8.925 8.925 0 0 0 5.524-1.904A4.453 4.453 0 0 1 6.59 16.88a4.452 4.452 0 0 0 2.009-.076 4.45 4.45 0 0 1-3.568-4.361v-.056a4.43 4.43 0 0 0 2.015.556A4.445 4.445 0 0 1 5.067 9.24c0-.815.22-1.58.602-2.236a12.628 12.628 0 0 0 9.168 4.647 4.448 4.448 0 0 1 7.58-4.057 8.908 8.908 0 0 0 2.824-1.08 4.461 4.461 0 0 1-1.956 2.462 8.894 8.894 0 0 0 2.555-.7 9.036 9.036 0 0 1-2.22 2.302z" fill="#FFF"/></svg>